<svg
    width="46"
    height="46"
    viewBox="0 0 26 34"
    fill="none"
    xmlns="http://www.w3.org/2000/svg"
>
    <path
    d="M18.8108 6.71693C18.8108 8.55224 18.0295 10.2051 16.7813 11.3609L19.9973 13.631V17.791H16.849C17.0008 19.7193 18.238 21.6491 19.8389 23.3323C21.5379 25.1187 23.5821 26.5595 24.9396 27.3352L25.1388 27.4491V33.6111H0.222168V27.4491L0.421446 27.3352C1.77895 26.5595 3.82306 25.1187 5.52206 23.3323C7.123 21.6491 8.36021 19.7193 8.51203 17.791H5.3637V13.631L8.35885 11.5168C7.00934 10.3563 6.15471 8.63642 6.15471 6.71693C6.15471 3.22205 8.98787 0.388885 12.4828 0.388885C15.9776 0.388885 18.8108 3.22205 18.8108 6.71693Z"
    fill="#34364C"
    />
</svg>